HIERARCHY
ROOT Hips
{
	OFFSET 0.000000 0.000000 0.000000
	CHANNELS 6 Xposition Yposition Zposition Zrotation Yrotation Xrotation 
	JOINT LHipJoint
	{
		OFFSET 0.000000 0.000000 0.000000
		CHANNELS 3 Zrotation Yrotation Xrotation
		JOINT LeftUpLeg
		{
			OFFSET 1.363060 -1.794630 0.839290
			CHANNELS 3 Zrotation Yrotation Xrotation
			JOINT LeftLeg
			{
				OFFSET 2.448110 -6.726130 0.000000
				CHANNELS 3 Zrotation Yrotation Xrotation
				JOINT LeftFoot
				{
					OFFSET 2.562200 -7.039590 0.000000
					CHANNELS 3 Zrotation Yrotation Xrotation
					JOINT LeftToeBase
					{
						OFFSET 0.157640 -0.433110 2.322550
						CHANNELS 3 Zrotation Yrotation Xrotation
						End Site
						{
							OFFSET 0.000000 0.000000 0.000000
						}
					}
				}
			}
		}
	}
	JOINT RHipJoint
	{
		OFFSET 0.000000 0.000000 0.000000
		CHANNELS 3 Zrotation Yrotation Xrotation
		JOINT RightUpLeg
		{
			OFFSET -1.305520 -1.794630 0.839290
			CHANNELS 3 Zrotation Yrotation Xrotation
			JOINT RightLeg
			{
				OFFSET -2.542530 -6.985550 0.000000
				CHANNELS 3 Zrotation Yrotation Xrotation
				JOINT RightFoot
				{
					OFFSET -2.568260 -7.056230 0.000000
					CHANNELS 3 Zrotation Yrotation Xrotation
					JOINT RightToeBase
					{
						OFFSET -0.164730 -0.452590 2.363150
						CHANNELS 3 Zrotation Yrotation Xrotation
						End Site
						{
							OFFSET 0.000000 0.000000 0.000000
						}
					}
				}
			}
		}
	}
	JOINT LowerBack
	{
		OFFSET 0.000000 0.000000 0.000000
		CHANNELS 3 Zrotation Yrotation Xrotation
		JOINT Spine
		{
			OFFSET 0.028270 2.035590 -0.193380
			CHANNELS 3 Zrotation Yrotation Xrotation
			JOINT Spine1
			{
				OFFSET 0.056720 2.048850 -0.042750
				CHANNELS 3 Zrotation Yrotation Xrotation
				JOINT Neck
				{
					OFFSET 0.000000 0.000000 0.000000
					CHANNELS 3 Zrotation Yrotation Xrotation
					JOINT Neck1
					{
						OFFSET -0.054170 1.746240 0.172020
						CHANNELS 3 Zrotation Yrotation Xrotation
						JOINT Head
						{
							OFFSET 0.104070 1.761360 -0.123970
							CHANNELS 3 Zrotation Yrotation Xrotation
							End Site
							{
								OFFSET 0.000000 0.000000 0.000000
							}
						}
					}
				}
				JOINT LeftShoulder
				{
					OFFSET 0.000000 0.000000 0.000000
					CHANNELS 3 Zrotation Yrotation Xrotation
					JOINT LeftArm
					{
						OFFSET 3.362410 1.200890 -0.311210
						CHANNELS 3 Zrotation Yrotation Xrotation
						JOINT LeftForeArm
						{
							OFFSET 4.983000 -0.000000 -0.000000
							CHANNELS 3 Zrotation Yrotation Xrotation
							JOINT LeftHand
							{
								OFFSET 3.483560 -0.000000 -0.000000
								CHANNELS 3 Zrotation Yrotation Xrotation
								JOINT LeftFingerBase
								{
									OFFSET 0.000000 0.000000 0.000000
									CHANNELS 3 Zrotation Yrotation Xrotation
									JOINT LeftHandIndex1
									{
										OFFSET 0.715260 -0.000000 -0.000000
										CHANNELS 3 Zrotation Yrotation Xrotation
										End Site
										{
											OFFSET 0.000000 0.000000 0.000000
										}
									}
								}
								JOINT LThumb
								{
									OFFSET 0.000000 0.000000 0.000000
									CHANNELS 3 Zrotation Yrotation Xrotation
									End Site
									{
										OFFSET 0.000000 0.000000 0.000000
									}
								}
							}
						}
					}
				}
				JOINT RightShoulder
				{
					OFFSET 0.000000 0.000000 0.000000
					CHANNELS 3 Zrotation Yrotation Xrotation
					JOINT RightArm
					{
						OFFSET -3.136600 1.374050 -0.404650
						CHANNELS 3 Zrotation Yrotation Xrotation
						JOINT RightForeArm
						{
							OFFSET -5.241900 -0.000000 -0.000000
							CHANNELS 3 Zrotation Yrotation Xrotation
							JOINT RightHand
							{
								OFFSET -3.444170 -0.000000 -0.000000
								CHANNELS 3 Zrotation Yrotation Xrotation
								JOINT RightFingerBase
								{
									OFFSET 0.000000 0.000000 0.000000
									CHANNELS 3 Zrotation Yrotation Xrotation
									JOINT RightHandIndex1
									{
										OFFSET -0.622530 -0.000000 -0.000000
										CHANNELS 3 Zrotation Yrotation Xrotation
										End Site
										{
											OFFSET 0.000000 0.000000 0.000000
										}
									}
								}
								JOINT RThumb
								{
									OFFSET 0.000000 0.000000 0.000000
									CHANNELS 3 Zrotation Yrotation Xrotation
									End Site
									{
										OFFSET 0.000000 0.000000 0.000000
									}
								}
							}
						}
					}
				}
			}
		}
	}
}
MOTION
Frames: 8
Frame Time: 0.033333
1.027317 19.039893 -15.568721 -0.803537 0.175847 30.038820 -18.225443 -5.114189 2.663046 2.253682 -2.054097 -33.015952 0.681365 -1.155813 7.132095 0.737904 14.185541 27.008937 -1.275333 -0.163199 -44.177811 17.457802 5.702014 1.953718 1.656790 -2.849065 -40.872740 6.383509 7.248399 24.722849 1.455893 -15.281290 23.821168 1.599036 -0.119950 -42.825147 2.269070 -2.789383 -3.365411 1.674098 -0.522554 -4.585208 -3.453147 -3.076449 2.488239 10.122081 -12.918663 -18.014376 -1.311312 -0.016259 -2.619513 -0.043315 0.097507 0.026507 -2.720262 15.096337 3.743929 -72.803159 10.770706 -0.957190 2.325221 -27.637381 -2.553628 9.235509 -2.893058 -0.184499 -0.152300 0.026529 -0.015023 0.019525 -0.015313 -0.043568 0.025593 0.081741 0.008083 4.831060 -6.875383 -0.214795 67.144239 -7.672334 -3.294383 1.338805 33.220629 -0.744136 -4.832547 9.688475 -0.457327 -0.053968 -0.050577 0.046085 0.098630 0.006109 -0.085281 0.044970 0.020274 0.045471 
1.031352 18.752617 -15.547103 -0.598476 1.214663 31.501583 -17.458445 -6.011652 2.808119 1.327847 -3.357364 -35.940978 2.155518 -1.821563 10.936562 0.887381 13.192252 21.522580 -1.830998 -0.200706 -40.924356 15.769511 6.547957 2.771921 2.471307 -2.514126 -45.633532 6.875176 4.347658 29.016779 1.135618 -13.434279 19.713121 1.982552 -0.107990 -41.682485 2.687403 -3.289560 -1.995474 -0.040113 -0.602572 -4.875026 -4.069768 -3.332528 3.595236 10.604227 -13.324672 -18.077182 -1.343436 -0.029910 -2.999268 -0.038016 0.113005 0.028679 -1.541562 14.913004 3.471573 -71.563775 11.822315 0.838366 0.037221 -34.541389 -1.296627 9.737854 -3.497289 -0.249225 -0.200612 -0.038780 -0.028583 0.012928 -0.021978 -0.035516 0.027770 0.077806 0.020041 7.418822 -9.273632 0.433082 66.852096 -6.752760 -0.815245 1.356791 35.892250 0.043246 -5.750510 8.962683 -0.482013 0.071887 -0.169325 0.031330 0.115452 -0.015956 -0.078866 0.045234 0.026029 0.047476 
1.034453 18.261034 -15.521687 -1.553145 0.884077 34.666200 -14.112871 -6.339441 3.992665 -1.298624 -5.912078 -43.006122 4.419097 -3.588334 17.307422 0.359961 13.929585 11.355390 -2.693918 -0.138747 -37.174339 14.827286 7.444450 3.849490 3.121140 0.630281 -52.335763 6.299319 2.773650 34.963779 1.634408 -12.210324 11.362479 2.118651 -0.078790 -40.973341 2.656996 -1.168891 -3.606740 0.698820 -1.826053 -4.191190 -4.826245 -3.170257 4.041742 10.739381 -13.987986 -19.537233 -1.747832 -0.058405 -3.189321 -0.026914 0.125636 0.029441 -1.998886 12.869769 3.951244 -68.220948 10.672189 2.535033 1.330946 -40.616205 -2.069204 11.319096 -3.736480 -0.358192 -0.181592 0.041307 -0.053662 -0.004428 -0.030690 -0.019326 0.016254 0.079375 0.037984 11.171582 -12.922805 2.890251 65.317234 -5.095692 -1.132335 1.871030 36.876155 -0.066856 -6.984203 7.985436 -0.519193 0.239737 -0.292991 0.018213 0.132360 -0.039001 -0.076853 0.030955 0.021394 0.036432 
1.043942 17.535850 -15.482177 0.106000 0.882243 39.065497 -12.002083 -6.630993 5.870199 -2.242873 -10.628137 -55.330713 4.191786 -2.878516 29.640895 0.815536 13.126978 -1.202960 -3.671270 -0.053850 -34.717623 12.843021 7.043121 4.495345 1.197295 5.316109 -62.485770 4.419771 -0.049861 45.817724 1.737097 -11.829567 0.757515 2.650358 -0.159486 -39.620609 2.153158 -2.737949 -4.688431 0.230284 -2.138689 -4.294487 -4.730827 -2.623667 4.058463 11.118045 -13.800661 -19.308952 -1.694881 -0.060446 -3.390500 -0.032463 0.131804 0.022173 -2.873658 11.466134 4.557352 -66.731809 9.123143 2.584646 1.820691 -43.962432 -2.816579 12.763300 -3.816810 -0.432725 -0.107177 0.177553 -0.069060 -0.021935 -0.040764 -0.012835 0.000640 0.082559 0.056541 12.576214 -14.061630 3.972702 63.370094 -5.212630 -0.105760 1.172507 36.705822 -0.690596 -7.681379 7.478429 -0.520438 0.249891 -0.294783 0.008252 0.157878 -0.058020 -0.076650 0.034143 0.004406 0.022258 
1.067259 16.644186 -15.425026 1.007268 0.742605 45.319582 -10.039596 -5.546885 6.014329 -0.681283 -17.085517 -69.255413 5.010094 -1.072980 43.858718 1.155301 13.221477 -12.635799 -4.791793 0.155373 -32.366460 11.319158 6.590568 4.649927 -1.811906 10.349429 -74.848126 2.216209 -2.425230 57.773266 1.961826 -12.456247 -9.253807 3.543389 -0.386145 -37.614703 1.562683 -2.907478 -8.070633 0.177488 -1.206505 -4.773133 -4.059140 -1.930077 3.217964 11.043653 -12.888609 -17.819407 -2.333031 -0.087066 -3.016794 -0.045780 0.132271 0.007292 -3.446026 6.680677 4.353072 -65.468867 8.057844 2.817120 3.263791 -46.192808 -4.365430 14.517372 -4.612227 -0.605086 -0.075332 0.138540 -0.075971 -0.035362 -0.051730 -0.018836 -0.024703 0.081772 0.069344 14.534374 -16.623794 4.442580 61.189461 -5.791221 -1.927885 1.182876 37.840201 -0.988135 -9.076229 7.930616 -0.642048 0.206396 -0.303251 0.000198 0.178314 -0.061378 -0.078016 0.035188 -0.009456 0.004385 
1.096723 15.759965 -15.345214 -0.044648 -0.223195 50.782032 -8.362066 -5.169642 6.542067 1.242163 -19.700746 -82.502760 6.692151 -0.574222 56.593315 0.627940 13.845793 -21.762634 -5.740970 0.323882 -30.612086 10.370400 6.381032 5.069034 -3.745505 14.384002 -85.844820 1.934677 -3.508987 67.812518 2.037846 -12.641677 -18.070288 4.555087 -0.618234 -36.490966 1.189974 -1.102983 -10.612749 0.397811 -1.296920 -4.879537 -4.294849 -2.606914 2.232398 11.125106 -11.655466 -15.907874 -2.778151 -0.120018 -2.859666 -0.072123 0.135600 -0.002657 -4.473682 4.695324 3.977985 -64.937979 5.696427 1.895772 4.361698 -48.001437 -5.181721 16.648137 -5.235734 -0.787113 0.006957 0.168282 -0.076360 -0.045758 -0.069179 -0.026710 -0.051616 0.084200 0.077096 17.066969 -16.143558 3.271141 60.261377 -5.636293 -3.998149 1.179376 38.747140 -1.211814 -10.377708 8.810163 -0.791107 0.109703 -0.219444 -0.005953 0.192910 -0.061416 -0.077717 0.044339 -0.024337 -0.011473 
1.111962 15.071175 -15.243727 0.382738 -1.272609 53.639066 -7.762499 -4.236232 7.013069 2.642598 -21.838912 -90.527847 7.912650 1.521242 64.333299 1.147290 12.778712 -27.901169 -6.881391 0.669544 -28.096157 10.615011 6.541557 5.492179 -6.190772 16.108003 -92.167343 0.432622 -3.184030 75.084882 1.413577 -12.273807 -25.726327 5.731460 -0.849056 -36.902841 -0.902970 0.409358 -13.818569 -0.025220 -2.162460 -3.466209 -4.979685 -3.584226 1.242888 11.329425 -10.312970 -14.695526 -3.080581 -0.139647 -2.621327 -0.100895 0.140830 -0.004225 -5.155635 2.660053 3.542436 -65.103564 2.764513 1.717614 3.122916 -48.329675 -3.842018 18.462395 -5.593568 -0.937361 -0.054690 0.348749 -0.081084 -0.043288 -0.079019 -0.032572 -0.074279 0.079126 0.084948 19.640420 -15.133087 3.877296 60.600731 -2.409958 -6.023867 1.804720 42.516680 -0.353740 -12.317544 10.283710 -1.093063 0.081469 -0.176563 -0.008255 0.210871 -0.061016 -0.076731 0.028453 -0.026332 -0.016644 
1.103449 14.672495 -15.121330 1.232263 -1.978374 55.390014 -8.282961 -3.190444 7.020533 2.276989 -23.392251 -94.809692 6.290857 0.810614 69.782456 1.336331 13.932372 -31.187643 -7.822168 0.914867 -27.003673 8.967718 6.407264 5.812205 -7.214842 17.455537 -95.164132 -0.275062 -3.255009 78.226460 1.077577 -12.544589 -31.209656 6.722953 -0.970308 -38.281019 -1.949674 0.172907 -15.850248 -0.315293 -1.668005 -3.022891 -5.824177 -3.430351 0.838136 11.598039 -8.528142 -14.848630 -3.421891 -0.190971 -2.462096 -0.122669 0.154380 0.002547 -5.375008 0.853148 3.160308 -64.471999 -2.698660 0.720603 2.718656 -47.437254 -3.543527 20.132193 -5.859856 -1.063761 -0.084223 0.341084 -0.081405 -0.045427 -0.098861 -0.032177 -0.084421 0.069578 0.091593 21.467784 -12.162921 2.339898 60.770620 2.830539 -8.056911 1.776769 46.248139 0.537812 -14.126838 11.405904 -1.371011 0.041346 -0.214966 -0.013815 0.217051 -0.058899 -0.072597 0.013340 -0.031143 -0.022321 
